<svg width="659" height="501" viewBox="0 0 659 501" fill="none" xmlns="http://www.w3.org/2000/svg">
<path d="M601.383 228.326V401.43C601.383 417.347 602.378 429.285 604.367 437.244C606.357 445.203 611.58 449.182 620.036 449.182C625.508 449.182 630.482 446.695 634.959 441.721C639.436 436.747 643.913 434.26 648.389 434.26C654.359 434.26 657.343 437.99 657.343 445.452C657.343 449.431 655.105 454.405 650.628 460.374C646.151 465.846 640.679 471.318 634.213 476.789C628.244 482.261 621.528 486.987 614.067 490.966C607.103 494.946 600.637 496.935 594.667 496.935C581.734 496.935 571.04 492.707 562.584 484.251C554.127 475.795 547.163 463.11 541.692 446.198H537.215L521.546 459.628C508.613 470.572 496.426 479.774 484.985 487.235C473.545 495.194 460.86 499.174 446.932 499.174C431.015 499.174 418.082 493.951 408.133 483.505C398.682 472.561 393.957 457.639 393.957 438.737C393.957 422.321 396.692 407.896 402.164 395.461C407.636 383.025 415.595 371.833 426.04 361.884C436.486 351.438 448.922 341.739 463.347 332.785C478.27 323.831 494.685 314.878 512.592 305.924L531.246 296.224C535.225 294.235 537.464 292.245 537.961 290.255C538.956 287.768 539.453 283.789 539.453 278.317V225.341C539.453 204.449 537.712 189.278 534.23 179.827C531.246 170.376 523.287 165.65 510.354 165.65C497.421 165.65 487.224 170.127 479.762 179.081C472.301 187.537 465.088 199.724 458.124 215.641C452.653 228.077 446.435 238.772 439.471 247.725C433.004 256.182 422.31 260.41 407.387 260.41C403.408 260.41 399.926 259.166 396.941 256.679C394.454 254.192 393.21 250.959 393.21 246.979C393.21 236.036 396.444 224.346 402.91 211.911C409.874 199.475 419.325 188.283 431.263 178.335C443.699 167.889 458.124 159.432 474.539 152.966C491.452 146.002 509.608 142.52 529.007 142.52C544.925 142.52 557.609 144.51 567.06 148.489C577.009 151.971 584.47 157.443 589.445 164.904C594.419 171.868 597.652 180.822 599.144 191.765C600.637 202.211 601.383 214.398 601.383 228.326ZM540.2 326.07C540.2 320.101 538.956 317.116 536.469 317.116C534.977 317.116 532.489 318.111 529.007 320.101L504.385 332.039C475.037 346.962 460.363 371.833 460.363 406.653C460.363 421.078 462.85 432.021 467.824 439.483C473.296 446.944 480.26 450.675 488.716 450.675C494.685 450.675 500.654 449.182 506.623 446.198C512.592 442.716 518.064 438.239 523.038 432.767C528.013 426.798 531.992 419.834 534.977 411.876C538.459 403.917 540.2 394.963 540.2 385.015V326.07Z" stroke="black" stroke-width="3" stroke-linecap="round"/>
<path d="M214.895 36.5684L327.562 391.73C333.034 409.14 338.008 423.068 342.485 433.513C346.962 443.959 354.174 452.416 364.123 458.882C371.087 463.856 377.304 466.841 382.776 467.836C388.745 468.333 391.73 470.82 391.73 475.297C391.73 482.261 386.507 485.743 376.061 485.743C369.594 485.743 361.138 484.997 350.692 483.505C340.744 482.012 328.308 481.266 313.385 481.266C292.494 481.266 275.581 482.012 262.648 483.505C250.212 484.5 241.507 484.997 236.533 484.997C228.077 484.997 223.849 482.012 223.849 476.043C223.849 468.084 228.823 464.105 238.772 464.105C251.207 464.105 259.415 462.862 263.394 460.374C267.374 457.887 269.363 453.162 269.363 446.198C269.363 439.731 267.125 428.539 262.648 412.622L233.549 317.116C232.554 313.137 228.823 311.147 222.357 311.147H129.836C128.343 311.147 126.602 311.893 124.613 313.385C123.12 314.38 122.126 315.872 121.628 317.862L103.721 384.268C96.2594 413.616 92.5287 432.767 92.5287 441.721C92.5287 449.182 94.021 454.157 97.0056 456.644C99.9901 459.131 104.964 460.872 111.928 461.867C121.877 463.359 129.338 465.1 134.312 467.09C139.287 469.079 141.774 472.81 141.774 478.282C141.774 484.251 137.546 487.235 129.089 487.235C123.618 487.235 115.41 486.489 104.467 484.997C93.5236 483.505 80.0931 482.759 64.1755 482.759C53.2322 482.759 43.5324 483.505 35.0762 484.997C27.1174 485.992 20.4021 486.489 14.9305 486.489C5.97682 486.489 1.5 483.256 1.5 476.789C1.5 472.81 2.74356 470.323 5.23069 469.328C7.71781 467.836 10.9511 466.841 14.9305 466.344C18.4124 465.846 22.3918 465.349 26.8687 464.851C30.8481 464.354 34.8275 462.613 38.8069 459.628C45.7708 454.654 50.9938 447.69 54.4757 438.736C57.9577 429.285 61.6884 417.845 65.6678 404.414L184.304 19.4073C186.293 13.9356 187.786 9.70748 188.78 6.72294C190.273 3.24098 193.009 1.5 196.988 1.5C202.46 1.5 205.942 4.73325 207.434 11.1997C208.926 17.6663 211.413 26.1225 214.895 36.5684ZM178.335 139.535C176.842 135.059 175.35 132.82 173.858 132.82C171.868 132.82 170.376 134.81 169.381 138.789L134.312 270.856C133.815 272.845 133.566 274.586 133.566 276.079C133.566 277.073 133.566 277.819 133.566 278.317C133.566 281.301 135.307 282.794 138.789 282.794H213.403C214.895 282.794 216.388 282.296 217.88 281.301C219.372 279.809 220.118 278.317 220.118 276.825C220.118 275.83 219.621 273.343 218.626 269.363L178.335 139.535Z" stroke="black" stroke-width="3" stroke-linecap="round"/>
</svg>
