<svg width="628" height="923" viewBox="0 0 628 923" fill="none" xmlns="http://www.w3.org/2000/svg">
<mask id="path-1-outside-1_55_112" maskUnits="userSpaceOnUse" x="0" y="0" width="628" height="923" fill="black">
<rect fill="white" width="628" height="923"/>
<path d="M313.876 2C486.12 2.00021 625.751 141.632 625.751 313.876C625.751 462.341 522.011 586.574 383.065 618.047V870.584C383.065 898.198 360.679 920.584 333.065 920.584H302.708C275.094 920.584 252.708 898.198 252.708 870.584L252.708 619.754C109.752 591.326 2.00018 465.185 2 313.876C2.00014 141.632 141.632 2.00014 313.876 2ZM313.875 59.1562C173.751 59.1565 60.1582 172.749 60.1582 312.873C60.1584 452.997 173.751 566.59 313.875 566.59C453.999 566.59 567.593 452.997 567.593 312.873C567.593 172.749 453.999 59.1562 313.875 59.1562Z"/>
</mask>
<path d="M313.876 2C486.12 2.00021 625.751 141.632 625.751 313.876C625.751 462.341 522.011 586.574 383.065 618.047V870.584C383.065 898.198 360.679 920.584 333.065 920.584H302.708C275.094 920.584 252.708 898.198 252.708 870.584L252.708 619.754C109.752 591.326 2.00018 465.185 2 313.876C2.00014 141.632 141.632 2.00014 313.876 2ZM313.875 59.1562C173.751 59.1565 60.1582 172.749 60.1582 312.873C60.1584 452.997 173.751 566.59 313.875 566.59C453.999 566.59 567.593 452.997 567.593 312.873C567.593 172.749 453.999 59.1562 313.875 59.1562Z" fill="#0000FF"/>
<path d="M313.876 2L313.876 0L313.876 0L313.876 2ZM625.751 313.876L627.751 313.876L627.751 313.876L625.751 313.876ZM383.065 618.047L382.624 616.096L381.065 616.449V618.047H383.065ZM383.065 870.584L385.065 870.584V870.584H383.065ZM333.065 920.584L333.065 922.584L333.065 922.584L333.065 920.584ZM302.708 920.584L302.708 922.584H302.708V920.584ZM252.708 870.584L250.708 870.584L250.708 870.584L252.708 870.584ZM252.708 619.754H254.708V618.112L253.098 617.792L252.708 619.754ZM2 313.876L0 313.876L0 313.876L2 313.876ZM313.875 59.1562L313.875 57.1562L313.875 57.1563L313.875 59.1562ZM60.1582 312.873L58.1582 312.873L58.1582 312.873L60.1582 312.873ZM313.875 566.59L313.875 568.59H313.875V566.59ZM567.593 312.873L569.593 312.873V312.873H567.593ZM313.876 2L313.876 4C485.015 4.00021 623.751 142.737 623.751 313.876L625.751 313.876L627.751 313.876C627.751 140.528 487.224 0.000210735 313.876 0L313.876 2ZM625.751 313.876L623.751 313.876C623.751 461.386 520.678 584.826 382.624 616.096L383.065 618.047L383.507 619.997C523.344 588.323 627.751 463.296 627.751 313.876L625.751 313.876ZM383.065 618.047H381.065V870.584H383.065H385.065V618.047H383.065ZM383.065 870.584L381.065 870.584C381.065 897.093 359.575 918.584 333.065 918.584L333.065 920.584L333.065 922.584C361.784 922.584 385.065 899.303 385.065 870.584L383.065 870.584ZM333.065 920.584V918.584H302.708V920.584V922.584H333.065V920.584ZM302.708 920.584L302.708 918.584C276.199 918.584 254.708 897.093 254.708 870.584L252.708 870.584L250.708 870.584C250.708 899.303 273.989 922.584 302.708 922.584L302.708 920.584ZM252.708 870.584H254.708L254.708 619.754H252.708H250.708L250.708 870.584H252.708ZM252.708 619.754L253.098 617.792C111.06 589.546 4.00018 464.212 4 313.876L2 313.876L0 313.876C0.000185035 466.157 108.444 593.105 252.318 621.715L252.708 619.754ZM2 313.876L4 313.876C4.00014 142.737 142.737 4.00014 313.876 4L313.876 2L313.876 0C140.527 0.000139351 0.000139278 140.527 0 313.876L2 313.876ZM313.875 59.1562L313.875 57.1563C172.647 57.1565 58.1582 171.645 58.1582 312.873H60.1582H62.1582C62.1582 173.854 174.856 61.1565 313.875 61.1562L313.875 59.1562ZM60.1582 312.873L58.1582 312.873C58.1584 454.101 172.647 568.59 313.875 568.59L313.875 566.59L313.875 564.59C174.856 564.59 62.1584 451.892 62.1582 312.873L60.1582 312.873ZM313.875 566.59V568.59C455.103 568.59 569.593 454.101 569.593 312.873L567.593 312.873L565.593 312.873C565.593 451.892 452.894 564.59 313.875 564.59V566.59ZM567.593 312.873H569.593C569.593 171.644 455.104 57.1562 313.875 57.1562V59.1562V61.1562C452.894 61.1562 565.593 173.854 565.593 312.873H567.593Z" fill="white" mask="url(#path-1-outside-1_55_112)"/>
</svg>
